<?xml version="1.0" encoding="UTF-8" standalone="no"?>
<svg
   xmlns:dc="http://purl.org/dc/elements/1.1/"
   xmlns:cc="http://creativecommons.org/ns#"
   xmlns:rdf="http://www.w3.org/1999/02/22-rdf-syntax-ns#"
   xmlns:svg="http://www.w3.org/2000/svg"
   xmlns="http://www.w3.org/2000/svg"
   viewBox="0 0 568 189.33333"
   height="189.33333"
   width="568"
   xml:space="preserve"
   id="svg2"
   version="1.1"><metadata
     id="metadata8"><rdf:RDF><cc:Work
         rdf:about=""><dc:format>image/svg+xml</dc:format><dc:type
           rdf:resource="http://purl.org/dc/dcmitype/StillImage" /></cc:Work></rdf:RDF></metadata><defs
     id="defs6"><clipPath
       id="clipPath24"
       clipPathUnits="userSpaceOnUse"><path
         style="clip-rule:evenodd"
         id="path22"
         d="M 362.273,676.949 C 421.191,790.754 599.152,947.895 464.703,1137.66 711.227,1030.32 644.797,816.219 514.875,639.336 411.605,498.75 523.348,316.383 686.68,353.789 794.199,378.402 865.953,486.203 855.313,595.906 912.043,375.883 685.164,201.543 480.578,315.738 350.109,388.555 296.965,550.828 362.273,676.949 Z" /></clipPath><linearGradient
       id="linearGradient30"
       spreadMethod="pad"
       gradientTransform="scale(10)"
       gradientUnits="userSpaceOnUse"
       y2="77.773003"
       x2="66.8424"
       y1="35.5411"
       x1="48.220402"><stop
         id="stop26"
         offset="0"
         style="stop-opacity:1;stop-color:#b52935" /><stop
         id="stop28"
         offset="1"
         style="stop-opacity:1;stop-color:#f3af24" /></linearGradient><clipPath
       id="clipPath40"
       clipPathUnits="userSpaceOnUse"><path
         style="clip-rule:evenodd"
         id="path38"
         d="m 790.039,897.855 c -26.984,-41.82 -41.309,-72.925 -34.578,-124.273 2.672,-19.953 23.121,-84.91 51.227,-52.355 16.07,18.636 9.359,49.445 4.464,71.07 15.227,-18.731 31.145,-38.41 39.328,-61.379 25.239,-70.406 -18.457,-151.375 -72.394,-196.016 -72.109,-60.097 -133.258,-13.078 -194.031,-150.574 -39.864,97.906 -15.317,134.27 45.812,213.656 35.043,45.508 40.192,80.379 5.676,133.075 59.559,-22.399 75.449,-74.227 72.785,-135.243 64.547,66.18 -2.629,117.25 3.059,190.743 4.226,54.144 35.207,84.289 78.652,111.296 z" /></clipPath><linearGradient
       id="linearGradient46"
       spreadMethod="pad"
       gradientTransform="scale(10)"
       gradientUnits="userSpaceOnUse"
       y2="46.5145"
       x2="76.818298"
       y1="87.084602"
       x1="68.8377"><stop
         id="stop42"
         offset="0"
         style="stop-opacity:1;stop-color:#b52935" /><stop
         id="stop44"
         offset="1"
         style="stop-opacity:1;stop-color:#f3af24" /></linearGradient></defs><g
     transform="matrix(1.3333333,0,0,-1.3333333,0,189.33333)"
     id="g10"><g
       transform="scale(0.1)"
       id="g12"><path
         id="path14"
         style="fill:#8d2199;fill-opacity:1;fill-rule:evenodd;stroke:none"
         d="M 0,1417.32 H 4251.97 V 0 H 0 v 1417.32" /><path
         id="path16"
         style="fill:#ffffff;fill-opacity:1;fill-rule:nonzero;stroke:none"
         d="m 1388.62,518.613 -126.08,370.164 c -3.72,11.805 -14.28,22.36 -29.19,22.36 -15.53,0 -26.7,-10.555 -30.42,-22.36 L 1070.01,518.613 c -3.73,-14.91 3.73,-32.918 22.37,-40.996 3.09,0 3.09,0 6.82,0 14.91,0 26.71,8.078 29.82,22.36 l 26.08,63.355 h 151.54 L 1329,499.977 c 7.45,-18.625 26.71,-25.457 41,-22.36 18.62,8.078 25.45,26.086 18.62,40.996 z m -211.16,107.446 55.89,159.004 54.66,-159.004 z m 491.88,162.101 c -17.39,0 -31.05,-13.668 -31.05,-30.43 V 602.875 c 0,-35.301 -28.57,-64.387 -64.59,-64.387 -35.4,0 -63.97,29.086 -63.97,64.387 V 757.73 c 0,16.762 -13.66,30.43 -31.05,30.43 -16.77,0 -30.44,-13.668 -30.44,-30.43 V 602.25 601.633 C 1448.87,532.895 1504.76,477 1573.7,477 c 69.56,0 125.46,55.895 126.08,124.633 v 0.617 155.48 c 0,16.762 -13.66,30.43 -30.44,30.43 z m 287.57,0 h -44.1 v 124.215 c 0,16.77 -13.67,30.438 -31.06,30.438 -16.77,0 -30.43,-13.668 -30.43,-30.438 V 788.16 h -44.71 c -16.77,0 -30.44,-13.668 -30.44,-30.43 0,-16.769 13.67,-31.054 30.44,-31.054 h 44.71 V 508.055 c 0,-16.77 13.66,-31.055 30.43,-31.055 17.39,0 31.06,14.285 31.06,31.055 v 218.621 h 44.1 c 17.39,0 31.05,14.285 31.05,31.054 0,16.762 -13.66,30.43 -31.05,30.43 z M 2181.11,477 c 86.33,0 155.89,70.188 155.89,156.207 0,86.637 -69.56,156.195 -155.89,156.195 -85.71,0 -155.9,-69.558 -155.9,-156.195 0,-86.019 70.19,-156.207 155.9,-156.207 z m 0,250.914 c 52.17,0 94.4,-42.336 94.4,-94.707 0,-51.762 -42.23,-94.719 -94.4,-94.719 -52.18,0 -94.41,42.957 -94.41,94.719 0,52.371 42.23,94.707 94.41,94.707 z m 163.34,154.031 c 0,-16.769 13.66,-30.433 31.05,-30.433 h 93.78 V 508.055 c 0,-17.391 13.67,-31.055 31.06,-31.055 16.77,0 30.43,13.664 30.43,31.055 v 343.457 h 94.4 c 16.77,0 30.44,13.664 30.44,30.433 0,17.391 -13.67,31.055 -30.44,31.055 H 2375.5 c -17.39,0 -31.05,-13.664 -31.05,-31.055 z M 2818.95,477 c 86.32,0 155.88,70.188 155.88,156.207 0,86.637 -69.56,156.195 -155.88,156.195 -85.72,0 -155.9,-69.558 -155.9,-156.195 0,-86.019 70.18,-156.207 155.9,-156.207 z m 0,250.914 c 52.16,0 94.39,-42.336 94.39,-94.707 0,-51.762 -42.23,-94.719 -94.39,-94.719 -52.18,0 -94.41,42.957 -94.41,94.719 0,52.371 42.23,94.707 94.41,94.707 z m 386.93,60.246 c -85.72,0 -155.9,-69.453 -155.9,-155.582 V 508.055 c 0,-16.77 13.66,-31.055 31.05,-31.055 16.77,0 30.44,14.285 30.44,31.055 v 124.523 c 0,51.965 42.23,94.098 94.41,94.098 17.39,0 31.05,14.285 31.05,31.054 0,16.762 -13.66,30.43 -31.05,30.43 z M 3427.6,477 c 53.41,0 102.48,26.703 131.04,71.324 9.32,14.281 5.6,33.43 -8.69,42.75 -14.28,8.696 -33.54,4.969 -42.86,-9.32 -17.39,-27.223 -47.2,-43.266 -79.49,-43.266 -51.55,0 -94.4,42.649 -94.4,94.09 0,52.074 42.85,94.098 94.4,94.098 34.16,0 65.21,-17.91 81.98,-46.996 8.7,-14.282 27.33,-19.25 42.23,-11.184 14.29,8.699 19.88,27.227 11.19,42.133 -27.95,47.723 -79.5,77.531 -135.4,77.531 -85.71,0 -155.27,-69.453 -155.27,-155.582 0,-85.496 69.56,-155.578 155.27,-155.578 z m 352.77,312.402 c -27.95,0 -53.42,-8.074 -75.15,-22.359 V 912.48 c 0,16.665 -13.67,30.333 -31.06,30.333 -16.77,0 -30.43,-13.668 -30.43,-30.333 V 508.16 c 0,-17.39 13.66,-31.16 30.43,-31.16 17.39,0 31.06,13.77 31.06,31.16 v 144.504 c 0,41.715 33.54,75.25 75.15,75.25 41.61,0 75.77,-33.535 75.77,-75.25 V 508.16 c 0,-17.39 13.66,-31.16 30.43,-31.16 16.77,0 31.06,13.77 31.06,31.16 v 144.504 c 0,75.25 -61.49,136.738 -137.26,136.738" /><g
         id="g18"><g
           clip-path="url(#clipPath24)"
           id="g20"><path
             id="path32"
             style="fill:url(#linearGradient30);fill-opacity:1;fill-rule:nonzero;stroke:none"
             d="M 362.273,676.949 C 421.191,790.754 599.152,947.895 464.703,1137.66 711.227,1030.32 644.797,816.219 514.875,639.336 411.605,498.75 523.348,316.383 686.68,353.789 794.199,378.402 865.953,486.203 855.313,595.906 912.043,375.883 685.164,201.543 480.578,315.738 350.109,388.555 296.965,550.828 362.273,676.949" /></g></g><g
         id="g34"><g
           clip-path="url(#clipPath40)"
           id="g36"><path
             id="path48"
             style="fill:url(#linearGradient46);fill-opacity:1;fill-rule:nonzero;stroke:none"
             d="m 790.039,897.855 c -26.984,-41.82 -41.309,-72.925 -34.578,-124.273 2.672,-19.953 23.121,-84.91 51.227,-52.355 16.07,18.636 9.359,49.445 4.464,71.07 15.227,-18.731 31.145,-38.41 39.328,-61.379 25.239,-70.406 -18.457,-151.375 -72.394,-196.016 -72.109,-60.097 -133.258,-13.078 -194.031,-150.574 -39.864,97.906 -15.317,134.27 45.812,213.656 35.043,45.508 40.192,80.379 5.676,133.075 59.559,-22.399 75.449,-74.227 72.785,-135.243 64.547,66.18 -2.629,117.25 3.059,190.743 4.226,54.144 35.207,84.289 78.652,111.296" /></g></g></g></g></svg>