<?xml version="1.0" encoding="UTF-8" standalone="no"?>
<svg
   xmlns:dc="http://purl.org/dc/elements/1.1/"
   xmlns:cc="http://creativecommons.org/ns#"
   xmlns:rdf="http://www.w3.org/1999/02/22-rdf-syntax-ns#"
   xmlns:svg="http://www.w3.org/2000/svg"
   xmlns="http://www.w3.org/2000/svg"
   viewBox="0 0 478.66666 116"
   height="116"
   width="478.66666"
   xml:space="preserve"
   id="svg2"
   version="1.1"><metadata
     id="metadata8"><rdf:RDF><cc:Work
         rdf:about=""><dc:format>image/svg+xml</dc:format><dc:type
           rdf:resource="http://purl.org/dc/dcmitype/StillImage" /></cc:Work></rdf:RDF></metadata><defs
     id="defs6"><clipPath
       id="clipPath22"
       clipPathUnits="userSpaceOnUse"><path
         style="clip-rule:evenodd"
         id="path20"
         d="M 32.2734,406.949 C 91.1914,520.754 269.152,677.895 134.703,867.664 381.227,760.316 314.797,546.219 184.875,369.336 81.6055,228.75 193.348,46.3828 356.68,83.7891 464.199,108.402 535.953,216.203 525.313,325.906 582.043,105.883 355.164,-68.457 150.578,45.7383 20.1094,118.555 -33.0352,280.828 32.2734,406.949 Z" /></clipPath><linearGradient
       id="linearGradient28"
       spreadMethod="pad"
       gradientTransform="matrix(10,0,0,10,-330,-270)"
       gradientUnits="userSpaceOnUse"
       y2="77.773003"
       x2="66.8424"
       y1="35.5411"
       x1="48.220402"><stop
         id="stop24"
         offset="0"
         style="stop-opacity:1;stop-color:#b52935" /><stop
         id="stop26"
         offset="1"
         style="stop-opacity:1;stop-color:#f3af24" /></linearGradient><clipPath
       id="clipPath38"
       clipPathUnits="userSpaceOnUse"><path
         style="clip-rule:evenodd"
         id="path36"
         d="m 460.039,627.855 c -26.984,-41.82 -41.309,-72.925 -34.578,-124.273 2.672,-19.953 23.121,-84.91 51.227,-52.355 16.07,18.636 9.359,49.445 4.464,71.07 15.227,-18.731 31.145,-38.41 39.328,-61.379 25.239,-70.406 -18.457,-151.375 -72.394,-196.016 -72.109,-60.097 -133.258,-13.078 -194.031,-150.574 -39.864,97.906 -15.317,134.27 45.812,213.656 35.043,45.508 40.192,80.379 5.676,133.075 59.559,-22.399 75.449,-74.227 72.785,-135.243 64.547,66.18 -2.629,117.25 3.059,190.743 4.226,54.144 35.207,84.289 78.652,111.296 z" /></clipPath><linearGradient
       id="linearGradient44"
       spreadMethod="pad"
       gradientTransform="matrix(10,0,0,10,-330,-270)"
       gradientUnits="userSpaceOnUse"
       y2="46.5145"
       x2="76.818298"
       y1="87.084602"
       x1="68.8377"><stop
         id="stop40"
         offset="0"
         style="stop-opacity:1;stop-color:#b52935" /><stop
         id="stop42"
         offset="1"
         style="stop-opacity:1;stop-color:#f3af24" /></linearGradient></defs><g
     transform="matrix(1.3333333,0,0,-1.3333333,0,116)"
     id="g10"><g
       transform="scale(0.1)"
       id="g12"><path
         id="path14"
         style="fill:#ffffff;fill-opacity:1;fill-rule:nonzero;stroke:none"
         d="M 1058.62,248.613 932.543,618.777 c -3.727,11.805 -14.281,22.36 -29.191,22.36 -15.528,0 -26.704,-10.555 -30.426,-22.36 L 740.012,248.613 c -3.731,-14.91 3.726,-32.918 22.363,-40.996 3.098,0 3.098,0 6.828,0 14.902,0 26.703,8.078 29.813,22.36 l 26.082,63.355 h 151.547 l 22.359,-63.355 c 7.446,-18.625 26.706,-25.457 40.996,-22.36 18.62,8.078 25.45,26.086 18.62,40.996 z M 847.457,356.059 903.352,515.063 958.008,356.059 Z M 1339.34,518.16 c -17.39,0 -31.05,-13.668 -31.05,-30.43 V 332.875 c 0,-35.301 -28.57,-64.387 -64.59,-64.387 -35.4,0 -63.97,29.086 -63.97,64.387 V 487.73 c 0,16.762 -13.66,30.43 -31.05,30.43 -16.77,0 -30.44,-13.668 -30.44,-30.43 V 332.25 331.633 C 1118.87,262.895 1174.76,207 1243.7,207 c 69.56,0 125.46,55.895 126.08,124.633 v 0.617 155.48 c 0,16.762 -13.66,30.43 -30.44,30.43 z m 287.57,0 h -44.1 v 124.215 c 0,16.77 -13.67,30.438 -31.06,30.438 -16.77,0 -30.43,-13.668 -30.43,-30.438 V 518.16 h -44.71 c -16.77,0 -30.44,-13.668 -30.44,-30.43 0,-16.769 13.67,-31.054 30.44,-31.054 h 44.71 V 238.055 c 0,-16.77 13.66,-31.055 30.43,-31.055 17.39,0 31.06,14.285 31.06,31.055 v 218.621 h 44.1 c 17.39,0 31.05,14.285 31.05,31.054 0,16.762 -13.66,30.43 -31.05,30.43 z M 1851.11,207 c 86.33,0 155.89,70.188 155.89,156.207 0,86.637 -69.56,156.195 -155.89,156.195 -85.71,0 -155.9,-69.558 -155.9,-156.195 0,-86.019 70.19,-156.207 155.9,-156.207 z m 0,250.914 c 52.17,0 94.4,-42.336 94.4,-94.707 0,-51.762 -42.23,-94.719 -94.4,-94.719 -52.18,0 -94.41,42.957 -94.41,94.719 0,52.371 42.23,94.707 94.41,94.707 z m 163.34,154.031 c 0,-16.769 13.66,-30.433 31.05,-30.433 h 93.78 V 238.055 c 0,-17.391 13.67,-31.055 31.06,-31.055 16.77,0 30.43,13.664 30.43,31.055 v 343.457 h 94.4 c 16.77,0 30.44,13.664 30.44,30.433 0,17.391 -13.67,31.055 -30.44,31.055 H 2045.5 c -17.39,0 -31.05,-13.664 -31.05,-31.055 z M 2488.95,207 c 86.32,0 155.88,70.188 155.88,156.207 0,86.637 -69.56,156.195 -155.88,156.195 -85.72,0 -155.9,-69.558 -155.9,-156.195 0,-86.019 70.18,-156.207 155.9,-156.207 z m 0,250.914 c 52.16,0 94.39,-42.336 94.39,-94.707 0,-51.762 -42.23,-94.719 -94.39,-94.719 -52.18,0 -94.41,42.957 -94.41,94.719 0,52.371 42.23,94.707 94.41,94.707 z m 386.93,60.246 c -85.72,0 -155.9,-69.453 -155.9,-155.582 V 238.055 c 0,-16.77 13.66,-31.055 31.05,-31.055 16.77,0 30.44,14.285 30.44,31.055 v 124.523 c 0,51.965 42.23,94.098 94.41,94.098 17.39,0 31.05,14.285 31.05,31.054 0,16.762 -13.66,30.43 -31.05,30.43 z M 3097.6,207 c 53.41,0 102.48,26.703 131.04,71.324 9.32,14.281 5.6,33.43 -8.69,42.75 -14.28,8.696 -33.54,4.969 -42.86,-9.32 -17.39,-27.223 -47.2,-43.266 -79.49,-43.266 -51.55,0 -94.4,42.649 -94.4,94.09 0,52.074 42.85,94.098 94.4,94.098 34.16,0 65.21,-17.91 81.98,-46.996 8.7,-14.282 27.33,-19.25 42.23,-11.184 14.29,8.699 19.88,27.227 11.19,42.133 -27.95,47.723 -79.5,77.531 -135.4,77.531 -85.71,0 -155.27,-69.453 -155.27,-155.582 0,-85.496 69.56,-155.578 155.27,-155.578 z m 352.77,312.402 c -27.95,0 -53.42,-8.074 -75.15,-22.359 V 642.48 c 0,16.665 -13.67,30.333 -31.06,30.333 -16.77,0 -30.43,-13.668 -30.43,-30.333 V 238.16 c 0,-17.39 13.66,-31.16 30.43,-31.16 17.39,0 31.06,13.77 31.06,31.16 v 144.504 c 0,41.715 33.54,75.25 75.15,75.25 41.61,0 75.77,-33.535 75.77,-75.25 V 238.16 c 0,-17.39 13.66,-31.16 30.43,-31.16 16.77,0 31.06,13.77 31.06,31.16 v 144.504 c 0,75.25 -61.49,136.738 -137.26,136.738" /><g
         id="g16"><g
           clip-path="url(#clipPath22)"
           id="g18"><path
             id="path30"
             style="fill:url(#linearGradient28);fill-opacity:1;fill-rule:nonzero;stroke:none"
             d="M 32.2734,406.949 C 91.1914,520.754 269.152,677.895 134.703,867.664 381.227,760.316 314.797,546.219 184.875,369.336 81.6055,228.75 193.348,46.3828 356.68,83.7891 464.199,108.402 535.953,216.203 525.313,325.906 582.043,105.883 355.164,-68.457 150.578,45.7383 20.1094,118.555 -33.0352,280.828 32.2734,406.949" /></g></g><g
         id="g32"><g
           clip-path="url(#clipPath38)"
           id="g34"><path
             id="path46"
             style="fill:url(#linearGradient44);fill-opacity:1;fill-rule:nonzero;stroke:none"
             d="m 460.039,627.855 c -26.984,-41.82 -41.309,-72.925 -34.578,-124.273 2.672,-19.953 23.121,-84.91 51.227,-52.355 16.07,18.636 9.359,49.445 4.464,71.07 15.227,-18.731 31.145,-38.41 39.328,-61.379 25.239,-70.406 -18.457,-151.375 -72.394,-196.016 -72.109,-60.097 -133.258,-13.078 -194.031,-150.574 -39.864,97.906 -15.317,134.27 45.812,213.656 35.043,45.508 40.192,80.379 5.676,133.075 59.559,-22.399 75.449,-74.227 72.785,-135.243 64.547,66.18 -2.629,117.25 3.059,190.743 4.226,54.144 35.207,84.289 78.652,111.296" /></g></g></g></g></svg>